#!OML:ASF E:\Steps\Project 1\Capture day 1\Session 2\Subject.ASF
:FULLY-SPECIFIED
:DEGREES
391
root 3.63067 17.0839 15.9467 -152.1 -1.13016 176.627
lowerback -30.7601 -1.87555 -8.33832
upperback -2.04393 -0.351873 -0.889712
thorax 13.768 -1.0003 3.30571
lowerneck -3.54234 -1.57001 -1.87432
upperneck -7.67184 -2.22276 6.08646
head -1.71813 -1.37099 2.27285
rclavicle -6.41081e-015 1.63003e-014
rhumerus -38.2882 -17.0764 -76.8139
rradius 35.4595
rwrist -5.48272
rhand -5.61437 -56.1487
rfingers 7.12502
rthumb 20.203 -85.1181
lclavicle -6.41081e-015 1.63003e-014
lhumerus -29.6447 5.48855 80.2515
lradius 24.5948
lwrist -2.66972
lhand -22.0372 -13.23
lfingers 7.12502
lthumb 4.3728 16.7049
rfemur -21.4174 6.31652 17.497
rtibia 5.66864
rfoot -19.531 -5.5179
rtoes -4.01534
lfemur -21.9367 -7.47949 -24.1944
ltibia 5.33434
lfoot -6.45504 -4.7308
ltoes -21.1288
392
root 3.62991 17.0834 15.9489 -152.132 -1.14909 176.635
lowerback -29.8439 -1.82653 -8.39899
upperback -2.67134 -0.477652 -0.840298
thorax 12.6546 -1.03658 3.35879
lowerneck -3.84866 -1.87268 -1.27339
upperneck -6.58493 -2.64065 5.2137
head -1.31234 -1.5263 1.85318
rclavicle 7.45443e-016 -4.77083e-015
rhumerus -39.2448 -16.3854 -76.795
rradius 35.8797
rwrist -5.96982
rhand -5.75014 -56.1488
rfingers 7.12502
rthumb 20.0725 -85.1319
lclavicle 7.45443e-016 -4.77083e-015
lhumerus -30.538 5.43098 80.2153
lradius 24.6802
lwrist -2.70818
lhand -22.1389 -13.3506
lfingers 7.12502
lthumb 4.27464 16.5863
rfemur -21.4239 6.18268 17.5357
rtibia 5.74818
rfoot -19.5526 -5.37855
rtoes -3.54881
lfemur -21.9041 -7.42224 -24.2021
ltibia 5.31947
lfoot -6.40009 -4.77593
ltoes -21.2873
393
root 3.6287 17.0822 15.9506 -152.098 -1.13673 176.63
lowerback -29.6602 -1.8667 -8.48696
upperback -2.84541 -0.564688 -0.73703
thorax 12.385 -1.07714 3.48765
lowerneck -3.32832 -1.65203 -1.90169
upperneck -6.9572 -2.30156 5.91316
head -1.52208 -1.37027 2.20967
rclavicle -4.77083e-015 2.26615e-014
rhumerus -39.4623 -15.9284 -76.837
rradius 36.1101
rwrist -6.27684
rhand -5.7717 -55.8628
rfingers 7.12502
rthumb 20.0518 -84.8481
lclavicle -4.77083e-015 2.26615e-014
lhumerus -30.7778 5.53641 80.3048
lradius 24.7492
lwrist -2.72915
lhand -22.0967 -13.3718
lfingers 7.12502
lthumb 4.3154 16.5642
rfemur -21.5565 5.95286 17.5729
rtibia 5.954
rfoot -19.6681 -5.15744
rtoes -3.87521
lfemur -21.9387 -7.42721 -24.2119
ltibia 5.31122
lfoot -6.45206 -4.76188
ltoes -22.0368
394
root 3.629 17.082 15.9524 -152.087 -1.14288 176.6
lowerback -30.2974 -1.98299 -8.64054
upperback -2.42258 -0.535571 -0.631658
thorax 13.1475 -1.0902 3.683
lowerneck -3.43652 -1.6437 -2.01796
upperneck -7.37599 -2.30242 6.00467
head -1.63675 -1.3887 2.26716
rclavicle 6.01324e-015 -2.38542e-014
rhumerus -38.7333 -15.9808 -76.9797
rradius 36.0379
rwrist -6.23467
rhand -5.72819 -55.4682
rfingers 7.12502
rthumb 20.0936 -84.4491
lclavicle 6.01324e-015 -2.38542e-014
lhumerus -30.0577 5.86312 80.4726
lradius 24.6322
lwrist -3.00496
lhand -22.0075 -13.2716
lfingers 7.12502
lthumb 4.40156 16.6626
rfemur -21.643 6.07087 17.5213
rtibia 6.08542
rfoot -19.7601 -5.31455
rtoes -4.41443
lfemur -21.9457 -7.44575 -24.2336
ltibia 5.29247
lfoot -6.50618 -4.79005
ltoes -21.9615
395
root 3.62978 17.082 15.9549 -152.067 -1.18482 176.576
lowerback -30.295 -1.96846 -8.68761
upperback -2.45096 -0.504124 -0.672261
thorax 13.1081 -1.07836 3.67577
lowerneck -3.4817 -1.72699 -1.82139
upperneck -7.22376 -2.41884 5.94359
head -1.57676 -1.4447 2.20777
rclavicle -4.52235e-015 3.18055e-015
rhumerus -38.6715 -16.1841 -77.0486
rradius 35.9526
rwrist -6.11043
rhand -5.62172 -54.9542
rfingers 7.12502
rthumb 20.196 -83.9243
lclavicle -4.52235e-015 3.18055e-015
lhumerus -30.0017 5.80227 80.4247
lradius 24.63
lwrist -3.09733
lhand -21.8489 -13.172
lfingers 7.12502
lthumb 4.55467 16.759
rfemur -21.642 6.28382 17.4582
rtibia 6.02153
rfoot -19.7075 -5.56663
rtoes -4.5998
lfemur -21.9673 -7.33352 -24.2687
ltibia 5.26037
lfoot -6.49021 -4.94039
ltoes -21.6906
396
root 3.63003 17.0818 15.9564 -152.058 -1.21105 176.592
lowerback -30.3035 -1.94469 -8.68252
upperback -2.47513 -0.477664 -0.696391
thorax 13.0802 -1.06626 3.65662
lowerneck -3.48225 -1.76096 -1.69305
upperneck -7.07224 -2.46471 5.89995
head -1.52741 -1.46356 2.16737
rclavicle 8.44835e-016 5.1684e-015
rhumerus -38.6542 -16.2809 -77.1446
rradius 35.9908
rwrist -6.05428
rhand -5.51533 -55.1446
rfingers 7.12502
rthumb 20.2982 -84.1039
lclavicle 8.44835e-016 5.1684e-015
lhumerus -30.0098 5.69075 80.3922
lradius 24.6843
lwrist -3.11141
lhand -21.8253 -13.1786
lfingers 7.12502
lthumb 4.57748 16.7519
rfemur -21.682 6.10908 17.512
rtibia 6.08518
rfoot -19.7276 -5.37154
rtoes -4.4598
lfemur -21.9835 -7.22024 -24.2672
ltibia 5.25694
lfoot -6.47791 -5.02251
ltoes -21.5864
